<svg id="Icons" height="512" viewBox="0 0 74 74" width="512" xmlns="http://www.w3.org/2000/svg"><path d="m70.71 39.49a32.38 32.38 0 0 0 -9.08-19.71 3.19 3.19 0 0 0 -4.42 0 3.1 3.1 0 0 0 -.21 4.22 30.65 30.65 0 0 1 3.42 5 22.73 22.73 0 0 1 -3 26.43 24.89 24.89 0 0 1 -4.59 3.86v-10.29c-.03-11.24-10.25-16-10.67-16.16-6.88-3.19-10.26-11.1-10.62-12-1.67-9.6-7.35-12.67-9.41-13.49-.75-2.35-2.68-5.06-7.48-5.35a1 1 0 0 0 -.93.52 1 1 0 0 0 .06 1.07 5.61 5.61 0 0 1 .88 3.12c-1.92.49-6.61 2.19-7.19 7.2 0 .06-.11 1.47-2.34 2.81a3.22 3.22 0 0 0 -1.72 1.84c-.45 1.23-.16 2.73.92 4.51.13.18 3 4.14 7.9 3.52a8 8 0 0 1 -2.47 5.63 1.07 1.07 0 0 0 -.19.28 17.56 17.56 0 0 0 1.57 15.35.87.87 0 0 0 .19.23c.06.05 5.34 4.72 3.8 9.48l-1.82 5.29a1.25 1.25 0 0 1 -.7.76l-2.74 1.16a3.65 3.65 0 0 0 1.43 7h5.18a3.44 3.44 0 0 0 3.2-2.21l3.66-9.74a11.45 11.45 0 0 0 4.77 4.18l-1.67.21a3.85 3.85 0 0 0 -3.33 4.42 3.94 3.94 0 0 0 3.89 3.27h15.32c.72.07 1.41.1 2 .1a16.66 16.66 0 0 0 6.27-1.09 28.29 28.29 0 0 0 11.75-8.66 41.54 41.54 0 0 0 6-9.78 27.59 27.59 0 0 0 2.37-12.98zm-57-23.78h-.78a1.46 1.46 0 0 1 0-2.91h.78a1.46 1.46 0 1 1 0 2.91z"/></svg>